<svg xmlns="http://www.w3.org/2000/svg" width="1024" height="1024"><path d="M732.518 272.324c11.059-10.586 25.773-16.438 41.043-16.322s29.901 6.191 40.8 16.944c10.899 10.753 17.216 25.342 17.619 40.689s-5.139 30.252-15.456 41.568L503.268 749.081c-5.387 5.83-11.888 10.509-19.115 13.76a58.597 58.597 0 0 1-46.068.858 58.768 58.768 0 0 1-19.608-13.043L210.74 541.801c-5.786-5.42-10.426-11.955-13.644-19.217a59.485 59.485 0 0 1-.813-46.265 59.238 59.238 0 0 1 12.961-19.69c5.592-5.621 12.252-10.053 19.584-13.03s15.185-4.44 23.091-4.3c7.906.14 15.703 1.88 22.926 5.116s13.724 7.901 19.114 13.717l164.399 165.207L731.024 274.06a19.794 19.794 0 0 1 1.568-1.736h-.077z"/></svg>